<svg role="img" 
  viewBox="0 0 56 65"
  xmlns="http://www.w3.org/2000/svg">
  <title>Location</title>
  <path 
    d="M27.9998 17.134C26.2369 17.134 24.5136 17.718 23.0478 18.812C21.582 19.906 20.4395 21.461 19.7649 23.2803C19.0903 25.0996 18.9138 27.1015 19.2577 29.0328C19.6016 30.9642 20.4505 32.7382 21.6971 34.1306C22.9436 35.5231 24.5318 36.4713 26.2609 36.8555C27.9899 37.2397 29.782 37.0425 31.4107 36.2889C33.0394 35.5353 34.4315 34.2592 35.4109 32.6219C36.3903 30.9846 36.9131 29.0596 36.9131 27.0904C36.9131 24.4498 35.974 21.9174 34.3024 20.0502C32.6309 18.183 30.3637 17.134 27.9998 17.134ZM27.9998 33.5716C26.8522 33.5716 25.7304 33.1915 24.7762 32.4793C23.8221 31.7672 23.0784 30.755 22.6392 29.5707C22.2001 28.3864 22.0851 27.0832 22.309 25.826C22.5329 24.5688 23.0855 23.4139 23.897 22.5075C24.7084 21.6011 25.7423 20.9838 26.8678 20.7337C27.9933 20.4837 29.16 20.612 30.2202 21.1026C31.2804 21.5931 32.1866 22.4238 32.8241 23.4897C33.4617 24.5555 33.802 25.8086 33.802 27.0904C33.7979 28.8063 33.1847 30.4504 32.0971 31.6621C31.0094 32.8738 29.5359 33.5543 27.9998 33.5542V33.5716Z"      
  />
  <path 
    d="M46.3089 28.8973C45.2534 28.8645 44.2067 28.6716 43.1978 28.3239V29.3143C43.1978 36.3689 39.4333 42.6416 36.68 47.2289L36.12 48.1498C33.4444 52.6328 29.8977 57.6544 27.9844 60.1392C26.1489 57.6544 22.5244 52.6328 19.8489 48.1498L19.32 47.1594C16.5666 42.5721 12.7866 36.2994 12.7866 29.2448C12.7961 26.3231 13.4804 23.4535 14.7735 20.9138C16.0666 18.374 17.9246 16.25 20.1678 14.7473C22.411 13.2446 24.9634 12.414 27.5782 12.3359C30.1929 12.2578 32.7814 12.9349 35.0933 14.3016C35.2171 13.1068 35.4893 11.9372 35.9022 10.8264C33.1088 9.31936 30.0179 8.63131 26.9207 8.82703C23.8235 9.02275 20.8218 10.0958 18.1984 11.9451C15.5749 13.7945 13.4161 16.3593 11.925 19.3979C10.434 22.4366 9.65984 25.8492 9.67553 29.3143C9.67553 37.4289 13.7511 44.2228 16.7377 49.175L17.2822 50.0785C20.2537 54.8893 23.4415 59.5288 26.8333 63.9792L28.0155 65.5257L29.1977 63.9792C32.5891 59.5284 35.7769 54.8889 38.7489 50.0785L39.2933 49.1576C42.2644 44.2055 46.34 37.4289 46.34 29.3143C46.3244 29.1753 46.3089 29.0363 46.3089 28.8973Z"      
  />
  <path 
    d="M46.6664 24.571C50.962 24.571 54.4442 20.6812 54.4442 15.883C54.4442 11.0848 50.962 7.19507 46.6664 7.19507C42.3709 7.19507 38.8887 11.0848 38.8887 15.883C38.8887 20.6812 42.3709 24.571 46.6664 24.571Z"      
  />
</svg>